<?xml version="1.0" encoding="utf-8"?>
<!-- Generator: Adobe Illustrator 21.0.2, SVG Export Plug-In . SVG Version: 6.00 Build 0)  -->
<svg version="1.1" id="Layer_1" xmlns="http://www.w3.org/2000/svg" xmlns:xlink="http://www.w3.org/1999/xlink" x="0px" y="0px"
	 viewBox="0 0 144 144" style="enable-background:new 0 0 144 144;" xml:space="preserve">
<style type="text/css">
	.st0{display:none;}
	.st1{display:inline;fill:#00ADEE;}
	.st2{display:inline;}
	.st3{fill:#5C5C5C;}
	.st4{fill:#231F20;}
	.st5{fill:#EC1C24;}
</style>
<g id="Layer_1_1_" class="st0">
	<path class="st1" d="M-40.4-77.8h224.7c20.9,0,37.7,16.8,37.7,37.6v224.4c0,20.8-16.8,37.6-37.6,37.6H-40.4
		c-20.8,0-37.6-16.8-37.6-37.6V-40.2C-78-61-61.2-77.8-40.4-77.8z"/>
</g>
<g id="Layer_2" class="st0">
	<g id="App_Icon_Placeholder_14_" class="st2">
		<path class="st3" d="M116.8-77.8H28.1c-29.8,0-45.8,0-62.1,5.2C-52.1-66-66.2-51.9-72.8-33.8C-78-17.5-78-2.5-78,27.3v89.4
			c0,29.8,0,44.8,5.2,61.2c6.6,18.1,20.7,32.2,38.9,38.8c16.3,5.1,31.3,5.1,61.2,5.1h89.6c29.9,0,44.9,0,61.2-5.2
			c18.1-6.6,32.2-20.7,38.8-38.8c5.2-16.3,5.2-31.2,5.2-61.1V27.3c0-29.8,0-44.8-5.2-61.2C210.3-52,196.2-66.1,178-72.7
			C161.6-77.8,146.6-77.8,116.8-77.8L116.8-77.8z"/>
	</g>
</g>
<g id="Layer_3" class="st0">
	<g class="st2">
		<g>
			<path class="st4" d="M215.7-4.3c-4.6-18-18.2-56.4-66.9-66.9c-36.4-7.9-61-6.5-71.6-6.7c-1.6,0-12.5,0-15.7,0
				c-14.2,0.2-35.2,0.2-66.4,7C-53.5-60.5-67.1-22.2-71.7-4.2C-78,20.3-78,72-78,72s0,51.7,6.3,76.2c4.6,18,18.2,56.3,66.9,66.8
				c31.2,6.8,53.7,6.9,66.4,7c3.2,0,14.1,0,15.7,0c9.9,0,35.2,1.2,71.6-6.7c48.7-10.6,62.3-48.9,66.9-66.9C222,123.7,222,72,222,72
				S222,20.2,215.7-4.3z"/>
		</g>
	</g>
</g>
<g id="Layer_4">
	<path class="st5" d="M72,0.1c39.7,0,72,32.2,72,71.9s-32.3,71.9-72,71.9S0,111.7,0,72S32.3,0.1,72,0.1z"/>
</g>
</svg>
