<?xml version="1.0" encoding="utf-8"?>
<!-- Generator: Adobe Illustrator 21.0.2, SVG Export Plug-In . SVG Version: 6.00 Build 0)  -->
<svg version="1.1" xmlns="http://www.w3.org/2000/svg" xmlns:xlink="http://www.w3.org/1999/xlink" x="0px" y="0px"
	 viewBox="0 0 300 300" style="enable-background:new 0 0 300 300;" xml:space="preserve">
<style type="text/css">
	.st0{display:none;}
	.st1{display:inline;fill-rule:evenodd;clip-rule:evenodd;fill:#00ADEE;}
	.st2{fill:#5C5C5C;}
	.st3{display:inline;}
	.st4{fill-rule:evenodd;clip-rule:evenodd;fill:#231F20;}
	.st5{display:inline;fill-rule:evenodd;clip-rule:evenodd;fill:#EC1C24;}
</style>
<g id="Layer_1" class="st0">
	<path class="st1" d="M37.6,0.2h224.7C283.2,0.2,300,17,300,37.8v224.4c0,20.8-16.8,37.6-37.6,37.6H37.6C16.8,299.8,0,283,0,262.2
		V37.8C0,17,16.8,0.2,37.6,0.2z"/>
</g>
<g id="Layer_2">
	<g id="App_Icon_Placeholder_14_">
		<path class="st2" d="M194.8,0.2h-88.7c-29.8,0-45.8,0-62.1,5.2C25.9,12,11.8,26.1,5.2,44.2C0,60.5,0,75.5,0,105.3v89.4
			c0,29.8,0,44.8,5.2,61.2c6.6,18.1,20.7,32.2,38.9,38.8c16.3,5.1,31.3,5.1,61.2,5.1h89.6c29.9,0,44.9,0,61.2-5.2
			c18.1-6.6,32.2-20.7,38.8-38.8c5.2-16.3,5.2-31.2,5.2-61.1v-89.4c0-29.8,0-44.8-5.2-61.2c-6.6-18.1-20.7-32.2-38.9-38.8
			C239.6,0.2,224.6,0.2,194.8,0.2L194.8,0.2z"/>
	</g>
</g>
<g id="Layer_3" class="st0">
	<g class="st3">
		<g>
			<path class="st4" d="M293.7,73.7c-4.6-18-18.2-56.4-66.9-66.9c-36.4-7.9-61-6.5-71.6-6.7c-1.6,0-12.5,0-15.7,0
				c-14.2,0.2-35.2,0.2-66.4,7C24.5,17.5,10.9,55.8,6.3,73.8C0,98.3,0,150,0,150s0,51.7,6.3,76.2c4.6,18,18.2,56.3,66.9,66.8
				c31.2,6.8,53.7,6.9,66.4,7c3.2,0,14.1,0,15.7,0c9.9,0,35.2,1.2,71.6-6.7c48.7-10.6,62.3-48.9,66.9-66.9
				C300,201.7,300,150,300,150S300,98.2,293.7,73.7z"/>
		</g>
	</g>
</g>
<g id="Layer_4" class="st0">
	<path class="st5" d="M150,0.2c82.8,0,150,67.1,150,149.8s-67.2,149.8-150,149.8S0,232.7,0,150S67.2,0.2,150,0.2z"/>
</g>
</svg>
